<?xml version="1.0" encoding="utf-8"?>
<!-- Generator: Adobe Illustrator 27.5.0, SVG Export Plug-In . SVG Version: 6.00 Build 0)  -->
<svg version="1.1" xmlns="http://www.w3.org/2000/svg" xmlns:xlink="http://www.w3.org/1999/xlink" x="0px" y="0px"
	 viewBox="0 0 500 500" style="enable-background:new 0 0 500 500;" xml:space="preserve">
<g id="BACKGROUND">
	<rect x="0" style="fill:#FFFFFF;" width="500" height="500"/>
</g>
<g id="OBJECTS">
	<g>
		<path style="fill:#E3EDFC;" d="M465.107,194.854c-6.072-68.656-68.144-120.116-136.733-113.329
			c-41.655,4.122-76.497,28.259-95.941,61.94c-11.244,19.476-33.011,30.224-55.271,27.026c-9.929-1.426-20.193-1.671-30.628-0.598
			c-67.817,6.972-117.85,67.788-111.609,135.676c6.353,69.107,67.745,119.715,136.693,112.893
			c41.772-4.133,76.693-28.395,96.105-62.224c11.194-19.508,33.377-29.764,55.654-26.665c9.605,1.336,19.52,1.567,29.596,0.57
			C421.188,323.392,471.132,262.97,465.107,194.854z"/>
	</g>
	<g>
		<g>
			<g>
				<path style="fill:#F9A723;" d="M161.169,487.365c-5.219-7.593-0.266-19.521,15.143-36.465
					c13.295-14.619,32.899-31.112,55.202-46.441c22.303-15.33,44.725-27.723,63.137-34.897c21.339-8.313,34.25-8.666,39.47-1.072
					l-8.27,5.684c-0.688-1-7.377-3.125-27.558,4.738c-17.713,6.902-39.41,18.912-61.096,33.817
					c-21.685,14.904-40.672,30.858-53.462,44.923c-14.571,16.022-14.984,23.03-14.297,24.03L161.169,487.365z"/>
			</g>
			<path style="fill:#EF7F1B;" d="M203.002,430.648h-5.635c-8.044,6.942-15.17,13.781-21.055,20.252
				c-0.575,0.632-1.131,1.255-1.677,1.874c2.922,2.415,4.632,5.815,5.477,9.017c1.099-1.308,2.301-2.685,3.624-4.139
				c5.092-5.6,11.18-11.501,18.017-17.515L203.002,430.648z"/>
			<g>
				
					<path style="fill:none;stroke:#1C1C26;stroke-width:2.5398;stroke-linecap:round;stroke-linejoin:round;stroke-miterlimit:10;" d="
					M161.169,487.365c-5.219-7.593-0.266-19.521,15.143-36.465c13.295-14.619,32.899-31.112,55.202-46.441
					c22.303-15.33,44.725-27.723,63.137-34.897c21.339-8.313,34.25-8.666,39.47-1.072"/>
				
					<path style="fill:none;stroke:#1C1C26;stroke-width:2.5398;stroke-linecap:round;stroke-linejoin:round;stroke-miterlimit:10;" d="
					M325.852,374.173c-0.688-1-7.377-3.125-27.558,4.738c-17.713,6.902-39.41,18.912-61.096,33.817
					c-21.685,14.904-40.672,30.858-53.462,44.923c-14.571,16.022-14.984,23.03-14.297,24.03"/>
			</g>
		</g>
		<path style="fill:#1C1C26;" d="M195.26,412.274c0.126-6.879,134.677-42.452,138.355-30.581
			c3.677,11.871-68.277,53.806-68.277,53.806S211.78,432.314,195.26,412.274z"/>
		<g>
			<g>
				<path style="fill:#B28170;" d="M174.96,361.453c37.881-3.227,26.931,75.016,26.931,75.016s138.608-15.807,135.967-21.094
					c-28.394-56.839-23.133-84.515-23.133-84.515L174.96,361.453z"/>
				<path style="fill:#8E665B;" d="M276.815,330.861L174.96,361.453c22.743-1.937,27.882,25.489,28.359,47.721
					C215.539,390.175,211.602,360.647,276.815,330.861z"/>
				<g>
					<path style="fill:#1C1C26;" d="M225.887,413.378c1.915-3.315,3.753-6.602,5.515-9.928c1.774-3.316,3.424-6.684,4.983-10.09
						c0.823-1.686,1.47-3.444,2.247-5.152l1.016-2.622c0.358-0.869,0.688-1.747,0.99-2.636c1.343-3.519,2.342-7.142,3.49-10.798
						c-0.197,3.808-0.717,7.639-1.723,11.342c-0.926,3.728-2.228,7.361-3.794,10.866c-1.542,3.518-3.372,6.909-5.478,10.114
						C231.025,407.673,228.671,410.733,225.887,413.378z"/>
				</g>
				<path style="fill:none;stroke:#1C1C26;stroke-width:2.5398;stroke-miterlimit:10;" d="M174.96,361.453
					c37.881-3.227,26.931,75.016,26.931,75.016s138.608-15.807,135.967-21.094c-28.394-56.839-23.133-84.515-23.133-84.515
					L174.96,361.453z"/>
			</g>
			<g>
				<g>
					<path style="fill:#EAA98C;" d="M390.845,201.644c-9.836-79.064-82.913-106.196-153.539-104.18
						c-92.988,2.653-115.026,52.566-114.356,123.984c-10.06,9.899-19.068,20.642-25.43,41.914
						c-4.241,14.181-0.543,25.09,20.304,24.845c0,0,7.275,48.744,22.32,69.598c9.675,13.41,34.894,28.22,95.84-6.029
						c2.868,0.08,5.778,0.088,8.743,0.004C320.032,349.631,403.401,302.572,390.845,201.644z"/>
					<path style="fill:#B28170;" d="M233.219,203.74c-21.699,74.518-3.995,66.784,27.531,69.757L233.219,203.74z"/>
					<path style="fill:#B28170;" d="M140.144,357.804c9.675,13.41,34.756,29.154,95.701-5.095c2.867,0.08,5.778,0.088,8.743,0.004
						c37.807-1.079,77.677-13.717,106.424-38.803l-82.371-35.093c0,0,2.425,30.71-35.63,54.204
						c-32.494,20.061-65.053,33.174-95.601,20.562C138.293,355.087,139.203,356.5,140.144,357.804z"/>
					<path style="fill:#B28170;" d="M124.895,279.539c-9.692-1.137-23.746-1.102-28.881-8.254
						c-0.612,10.113,5.062,17.118,21.809,16.921c0,0,0.171,1.141,0.511,3.139C130.935,288.555,137.177,280.98,124.895,279.539z"/>
					
						<ellipse transform="matrix(0.6081 -0.7938 0.7938 0.6081 -142.8054 186.0363)" style="fill:#FFC1A9;" cx="117.03" cy="237.663" rx="12.562" ry="3.548"/>
					<path style="fill:#B28170;" d="M150.869,195.702c20.81-24.043,42.51-7.186,49.204,13.564
						c6.694,20.751-40.269,3.091-40.269,3.091L150.869,195.702z"/>
					<path style="fill:#B28170;" d="M124.574,188.929c49.867-4.102,99.824-61.328,99.824-61.328l-76.124,2.172
						C134.556,145.097,127.477,165.254,124.574,188.929z"/>
					<g>
						<path style="fill:#1C1C26;" d="M323.621,331.152c10.157-5.419,19.717-11.976,28.245-19.689
							c8.528-7.704,16-16.582,21.969-26.393c6-9.794,10.401-20.54,13.188-31.68c2.843-11.14,3.937-22.683,3.816-34.187
							c-0.12-5.756-0.54-11.505-1.215-17.228l-0.642-4.264c-0.238-1.417-0.379-2.852-0.713-4.251
							c-0.616-2.805-1.101-5.643-1.928-8.396c-0.382-1.384-0.74-2.775-1.141-4.152l-1.374-4.08l-0.688-2.039l-0.809-1.993
							l-1.616-3.988l-1.857-3.879l-0.933-1.938l-1.047-1.878c-0.705-1.248-1.379-2.514-2.107-3.747l-2.32-3.62
							c-3.193-4.754-6.694-9.322-10.68-13.449l-1.467-1.573c-0.49-0.524-1.029-0.998-1.542-1.499l-3.115-2.967
							c-2.199-1.842-4.316-3.785-6.643-5.471c-9.081-7.038-19.296-12.543-29.93-16.919c-2.686-1.035-5.353-2.119-8.095-3.006
							c-2.71-0.977-5.48-1.771-8.239-2.601c-5.551-1.54-11.154-2.926-16.833-3.941c-11.333-2.166-22.865-3.239-34.403-3.606
							c-5.771-0.131-11.552-0.155-17.32,0.137c-2.885,0.128-5.771,0.236-8.644,0.512l-4.314,0.35
							c-1.435,0.141-2.864,0.336-4.296,0.501c-11.437,1.385-22.803,3.714-33.541,7.8c-2.716,0.941-5.307,2.171-7.934,3.318
							c-1.29,0.621-2.549,1.304-3.826,1.952c-0.631,0.337-1.285,0.636-1.897,1.005l-1.841,1.102
							c-2.497,1.405-4.813,3.086-7.162,4.714l-3.357,2.664c-1.134,0.87-2.133,1.897-3.207,2.838
							c-4.177,3.892-7.928,8.235-11.183,12.934c-3.202,4.737-5.909,9.802-8.17,15.065c-2.289,5.254-4.043,10.742-5.451,16.312
							c-0.759,2.773-1.287,5.605-1.885,8.418c-0.478,2.839-1.011,5.669-1.354,8.533c-1.585,11.423-1.971,23.003-1.92,34.561
							l0.002,0.535l-0.376,0.368c-5.309,5.194-10.236,10.721-14.208,16.925c-4.013,6.172-7.043,12.951-9.446,19.937
							c-1.164,3.523-2.334,7.023-2.744,10.576c-0.049,0.444-0.113,0.888-0.152,1.331l-0.034,1.326
							c-0.071,0.891,0.08,1.749,0.127,2.622c0.284,1.694,0.677,3.397,1.586,4.814l0.304,0.552c0.107,0.18,0.258,0.33,0.384,0.496
							l0.783,0.983l0.944,0.842l0.47,0.423c0.171,0.125,0.359,0.231,0.538,0.348l1.081,0.693c0.364,0.225,0.785,0.369,1.174,0.559
							c0.4,0.172,0.784,0.376,1.196,0.525l1.267,0.389c3.4,1.008,7.064,1.265,10.711,1.275l1.087,0.003l0.164,1.062l0,0.003
							c2.526,14.534,5.755,29.052,10.358,43.052c2.31,6.987,4.961,13.886,8.461,20.267c0.801,1.646,1.87,3.097,2.828,4.629
							c0.949,1.544,2.085,2.903,3.29,4.219c2.415,2.616,5.234,4.853,8.346,6.588c6.209,3.54,13.465,5.048,20.697,5.164
							c7.262,0.132,14.552-1.07,21.643-2.93c7.109-1.844,14.036-4.424,20.8-7.363c6.761-2.973,13.329-6.31,20.361-8.941
							c-5.929,4.616-12.594,8.054-19.421,11.076c-6.822,3.04-13.83,5.729-21.084,7.685c-7.236,1.969-14.73,3.29-22.335,3.226
							c-7.56-0.061-15.348-1.53-22.101-5.359c-3.373-1.881-6.444-4.315-9.064-7.154c-1.301-1.417-2.554-2.927-3.553-4.546
							c-1.014-1.612-2.147-3.17-2.977-4.868c-3.645-6.647-6.337-13.678-8.688-20.777c-2.332-7.112-4.201-14.346-5.863-21.615
							c-1.657-7.277-3.063-14.582-4.171-21.984l-0.001-0.003l1.251,1.065c-3.813-0.013-7.685-0.266-11.464-1.382l-1.411-0.437
							c-0.464-0.168-0.913-0.399-1.37-0.597c-0.45-0.218-0.92-0.386-1.351-0.648l-1.281-0.817c-0.211-0.14-0.43-0.268-0.634-0.418
							l-0.576-0.509l-1.141-1.029l-0.97-1.204c-0.155-0.205-0.334-0.395-0.467-0.615l-0.379-0.673
							c-1.107-1.759-1.584-3.783-1.904-5.749c-0.064-0.991-0.22-1.99-0.148-2.97l0.04-1.476c0.042-0.487,0.109-0.969,0.163-1.453
							c0.086-0.975,0.282-1.921,0.475-2.868c0.161-0.957,0.446-1.873,0.686-2.804c0.231-0.941,0.546-1.817,0.822-2.723
							c0.293-0.897,0.549-1.805,0.877-2.692c2.454-7.135,5.568-14.111,9.711-20.483c4.098-6.403,9.189-12.102,14.556-17.352
							l-0.373,0.902c-0.052-11.646,0.336-23.335,1.942-34.92c0.348-2.902,0.889-5.778,1.375-8.662
							c0.607-2.863,1.145-5.741,1.918-8.57c1.436-5.677,3.228-11.287,5.575-16.678c2.319-5.398,5.103-10.611,8.406-15.495
							c3.357-4.847,7.232-9.334,11.545-13.353c1.108-0.972,2.143-2.03,3.311-2.929l3.463-2.748c2.419-1.68,4.808-3.41,7.375-4.855
							l1.894-1.133c0.631-0.379,1.3-0.686,1.948-1.033c1.31-0.666,2.605-1.367,3.928-2.004c2.691-1.177,5.35-2.436,8.124-3.399
							c10.984-4.178,22.537-6.539,34.122-7.943c1.451-0.167,2.899-0.364,4.351-0.507l4.364-0.355
							c2.907-0.279,5.822-0.389,8.736-0.518c5.827-0.295,11.663-0.271,17.494-0.138c11.658,0.37,23.316,1.455,34.793,3.648
							c5.75,1.028,11.43,2.432,17.06,3.994c2.799,0.842,5.61,1.649,8.363,2.64c2.783,0.9,5.496,2.001,8.225,3.054
							c10.813,4.449,21.227,10.058,30.511,17.252c2.377,1.724,4.545,3.71,6.793,5.596l3.19,3.036
							c0.524,0.514,1.076,0.999,1.578,1.536l1.503,1.61c4.081,4.228,7.673,8.909,10.944,13.783l2.377,3.711
							c0.746,1.264,1.439,2.561,2.16,3.84l1.072,1.925l0.956,1.984l1.901,3.974l1.655,4.081l0.827,2.041l0.704,2.085l1.404,4.172
							c0.41,1.408,0.777,2.828,1.167,4.242c0.843,2.813,1.34,5.706,1.968,8.569c0.34,1.428,0.485,2.889,0.728,4.333l0.653,4.345
							c0.685,5.806,1.112,11.644,1.233,17.496c0.125,11.696-0.989,23.46-3.891,34.833c-2.844,11.373-7.345,22.36-13.477,32.37
							c-6.101,10.028-13.734,19.094-22.428,26.948c-8.694,7.864-18.425,14.535-28.746,20.042L323.621,331.152z"/>
					</g>
				</g>
				<g>
					<path style="fill:#1C1C26;" d="M151.56,302.067c-11.967,5.621-23.242,6.182-29.945,5.833
						c1.831,8.155,4.332,17.824,7.517,26.963c9.47-0.451,21.415-2.489,33.906-8.356c0.176-0.083,0.35-0.17,0.521-0.259
						c6.376-3.331,9.047-11.128,5.96-17.7C166.349,301.799,158.309,298.898,151.56,302.067z"/>
					<path style="fill:#F37F8A;" d="M168.651,321.57c-13.225-5.195-28.898-0.889-37.657,13.186
						c9.151-0.624,20.361-2.764,32.044-8.251c0.176-0.083,0.35-0.17,0.521-0.259C165.707,325.125,167.423,323.489,168.651,321.57z"
						/>
					<path style="fill:#AA616C;" d="M145.865,321.794c-5.769,2.426-10.997,6.737-14.871,12.962
						c6.067-0.413,13.043-1.501,20.459-3.782C144.198,331.267,139.129,329.542,145.865,321.794z"/>
					<path style="fill:#FFFFFF;" d="M148.563,303.367c-0.509,0.206-1.018,0.415-1.522,0.604c-0.287,0.108-0.57,0.202-0.855,0.304
						c-0.456,0.163-0.913,0.33-1.365,0.481c-0.303,0.101-0.602,0.189-0.904,0.284c-0.428,0.135-0.857,0.273-1.281,0.397
						c-0.311,0.091-0.616,0.17-0.924,0.254c-0.408,0.112-0.818,0.228-1.221,0.33c-0.315,0.08-0.624,0.149-0.936,0.224
						c-0.387,0.092-0.775,0.186-1.157,0.27c-0.323,0.07-0.639,0.131-0.958,0.195c-0.361,0.073-0.724,0.148-1.08,0.213
						c-0.33,0.061-0.653,0.113-0.979,0.168c-0.334,0.056-0.669,0.114-0.997,0.163c-0.339,0.051-0.669,0.095-1.002,0.14
						c-0.302,0.041-0.606,0.083-0.903,0.119c-0.349,0.042-0.69,0.078-1.032,0.114c-0.267,0.028-0.535,0.057-0.797,0.081
						c-0.362,0.033-0.715,0.061-1.068,0.087c-0.227,0.017-0.455,0.035-0.678,0.05c-0.376,0.024-0.741,0.043-1.105,0.061
						c-0.186,0.009-0.372,0.018-0.554,0.025c-0.389,0.015-0.766,0.026-1.14,0.033c-0.142,0.003-0.284,0.007-0.423,0.008
						c-0.403,0.006-0.794,0.007-1.178,0.006c-0.096-0.001-0.192-0.001-0.286-0.001c-0.417-0.004-0.82-0.011-1.213-0.023
						c-0.048-0.001-0.096-0.003-0.144-0.004c-0.432-0.013-0.847-0.03-1.246-0.051c0.719,3.202,1.545,6.641,2.471,10.186
						c29.079-0.474,36.572-6.858,39.931-15.498c-0.001-0.001-0.002-0.001-0.002-0.001c-0.434-0.249-0.883-0.468-1.34-0.667
						c-0.067-0.029-0.135-0.056-0.203-0.084c-0.405-0.168-0.818-0.316-1.238-0.445c-0.077-0.024-0.154-0.049-0.232-0.071
						c-0.461-0.132-0.928-0.242-1.401-0.325c-0.024-0.004-0.047-0.011-0.071-0.015c-0.515-0.088-1.037-0.146-1.562-0.173
						c-0.023-0.001-0.047,0-0.07-0.001c-0.465-0.022-0.933-0.015-1.402,0.013c-0.141,0.008-0.283,0.025-0.424,0.038
						c-0.357,0.032-0.714,0.079-1.07,0.14c-0.165,0.029-0.331,0.059-0.496,0.094c-0.35,0.074-0.698,0.167-1.045,0.27
						c-0.15,0.045-0.302,0.083-0.452,0.134c-0.488,0.164-0.973,0.35-1.451,0.574c-0.76,0.357-1.517,0.693-2.271,1.01
						C149.046,303.179,148.805,303.268,148.563,303.367z"/>
					<path style="fill:none;stroke:#1C1C26;stroke-width:2.5;stroke-miterlimit:10;" d="M151.56,302.067
						c-11.967,5.621-23.242,6.182-29.945,5.833c1.831,8.155,4.332,17.824,7.517,26.963c9.47-0.451,21.415-2.489,33.906-8.356
						c0.176-0.083,0.35-0.17,0.521-0.259c6.376-3.331,9.047-11.128,5.96-17.7C166.349,301.799,158.309,298.898,151.56,302.067z"/>
					<path style="fill:#E3EDFC;" d="M151.56,302.067c-12.328,5.79-23.935,6.214-30.552,5.802c-0.014,1.849-0.008,3.758,0.017,5.701
						c27.767-1.569,33.651-9.596,40.984-7.014c0.824-1.255,1.47-2.583,2.009-3.969C160.328,300.471,155.703,300.121,151.56,302.067z
						"/>
				</g>
				<g>
					<path style="fill:#624A49;" d="M275.553,265.653l-45.005-5.478c0,0-0.624-10.079,1.046-38.881s-54.262-2.809-32.971-80.093
						c-85.028,43.862-111.723,11.32-112.659-8.016c0,0,8.906,15.623,27.016,16.849c0,0-17.688-6.66-22.693-33.818
						c-5.005-27.159,19.042-40.237,19.042-40.237s-10.398,26.436,10.903,38.414c0,0-5.828-6.094-5.066-19.799
						c0,0,5.144,15.795,19.922,21.57c0,0-6.024-4.475-3.208-13.591c0,0,4.701,12,15.482,12.467
						c10.781,0.467,57.135-42.237,148.798-19.257s112.758,101.866,96.593,155.331c0,0-14.244,70.439-79.64,88.188
						C313.113,339.303,268.144,316.584,275.553,265.653"/>
					<g>
						<path style="fill:#9B8175;" d="M115.165,94.596c-0.763,13.705,5.066,19.799,5.066,19.799
							c-7.799-4.386-11.339-10.71-12.705-16.965c-2.325,9.746-6.291,22.417-12.749,33.164c2.249,4.828,4.894,8.549,7.466,11.377
							c6.395-12.479,16.542-22.563,25.673-29.828C118.601,105.135,115.165,94.596,115.165,94.596z"/>
						<path style="fill:#9B8175;" d="M89.6,138.038c-0.692,0.853-1.404,1.684-2.14,2.483c1.709,4.802,4.935,9.731,10.06,13.751
							c0.7-2.709,1.594-5.333,2.655-7.867C95.483,143.947,91.963,140.702,89.6,138.038z"/>
						<path style="fill:#9B8175;" d="M131.879,102.574c-0.843,2.73-0.885,5.035-0.542,6.937c1.083-0.806,2.141-1.569,3.165-2.287
							C132.721,104.716,131.879,102.574,131.879,102.574z"/>
					</g>
					<path style="fill:#3A312F;" d="M200.943,127.422l-8.087,16.674c1.895-0.93,3.81-1.885,5.767-2.894
						c-11.216,40.715-1,52.763,10.936,59.263c-3.607-5.649-6.371-13.136-5.36-22.291c0,0,6.159,19.069,23.001,25.738
						c0,0-4.238-6.01-5.543-11.047c0,0,9.56,9.332,12.891,17.484l0.989-12.836c0,0,6.355,12.355,4.508,22.282
						c0,0,5.446-3.641,7.953-8.553c0,0-0.469,9.905-4.523,15.24c0,0,8.654-3.934,13.707-10.081c0,0-9.113,10.522-2.962,20.415
						c2.631,4.232,52.748,28.695,52.748,28.695l-22.558,43.101c0,0,24.878,5.71,40.092-31.075c0,0-2.64,23.07-22.444,35.76
						c0,0,21.061-2.79,35.834-27.938c0,0-8.591,26.249-29.297,37.166c0,0,22.337-4.38,34.276-20.986c0,0-5.178,13.056-16.167,21.502
						c0,0,15.216-5.081,25.719-16.999c0,0-4.422,9.679-14.717,16.685c0,0,5.985-0.308,14.975-4.3
						c10.206-8.716,17.981-18.722,23.834-28.311C356.543,248.837,200.943,127.422,200.943,127.422z"/>
					<path style="fill:#282525;" d="M248.201,200.296c0,0,5.01,9.345,3.673,16.741c0,0,6.453-4.577,9.372-7.45l-1.1,5.568
						l11.324-6.906l-71.616-71.467l-5.058,3.314l-1.941,4.001c1.895-0.93,3.81-1.885,5.767-2.894
						c-8.596,31.202-4.599,45.56,3.107,53.496c-3.532-8.472-4.962-19.112,1.707-29.623c0,0,0.434,14.703,13.391,25.951
						c0,0-4.981-8.119-4.71-16.259c0,0,14.627,10.942,19.255,23.848c0,0,1.799-7.928,0.45-15.89c0,0,11.363,11.423,12.747,26.002
						C244.569,208.726,247.787,206.117,248.201,200.296z"/>
					<path style="fill:#282525;" d="M321.315,244.487c0,0,3.512,28.692-7.92,41.965c0,0,12.919-9.281,18.074-28.785
						c0,0,0.587,24.561-7.992,36.036c0,0,15.621-8.977,24.334-29.357c0,0-4.905,24.908-15.17,38.379c0,0,16.681-12.04,23.776-28.55
						c0,0-4.584,22.592-13.329,35.04c0,0,17.437-13.225,22.826-27.927c0,0-3.096,19.442-12.572,30.547c0,0,6.655-3.629,15.048-9.961
						c3.04-3.912,5.749-7.867,8.123-11.757c-6.093-12.594-24.818-32.651-47.889-54.439L321.315,244.487z"/>
					<path style="fill:#3A312F;" d="M167.1,113.058c-8.12,7.202-19.723,7.727-19.723,7.727c3.134,1.266,6.625,1.457,6.625,1.457
						c-9.021,2.775-24.667,0.704-24.667,0.704c10.826,6.178,29.148,4.106,29.148,4.106c-14.946,5.945-36.991,2.638-36.991,2.638
						c13.839,9.998,39.301,6.59,39.301,6.59c-20.08,8.802-47.207,1.347-47.207,1.347c19.12,18.624,46.105,11.657,46.105,11.657
						s-6.503,8.176-20.441,12.89c15.457-2.134,34.877-8.374,59.018-20.79C206.086,120.44,173.983,106.953,167.1,113.058z"/>
					<path style="fill:#282525;" d="M217.498,128.562c-32.849,19.332-53.39,22.145-53.39,22.145l17.476-8.437
						c0,0-22.967,9.272-45.953,4.506c0,0,24.032-2.331,38.131-13.867c0,0-14.44,1.671-24.68,0.156c0,0,19.683-2.369,41.916-14.879
						C213.23,105.674,217.498,128.562,217.498,128.562z"/>
					<g>
						<path style="fill:#1C1C26;" d="M113.585,137.626c3.124,2.43,6.393,4.591,9.861,6.342c3.473,1.741,7.146,3.003,10.892,3.874
							c1.867,0.472,3.778,0.739,5.684,0.985l2.874,0.276l2.889,0.098c3.856,0.032,7.716-0.317,11.53-0.963
							c7.629-1.314,15.07-3.727,22.219-6.795c7.137-3.106,14.051-6.791,20.599-11.021l1.396,2.074
							c-3.264,2.288-6.666,4.359-10.14,6.303c-3.468,1.957-7.054,3.705-10.714,5.287c-3.66,1.582-7.402,2.988-11.222,4.172
							c-3.825,1.169-7.743,2.052-11.707,2.66c-7.904,1.176-16.156,1.257-23.946-0.953c-3.879-1.088-7.625-2.658-11.046-4.748
							C119.355,143.088,116.285,140.508,113.585,137.626z"/>
					</g>
					<path style="fill:none;stroke:#1C1C26;stroke-width:2.5;stroke-miterlimit:10;" d="M275.553,265.653l-45.472-5.464
						c0,0-0.157-10.092,1.513-38.894s-54.262-2.809-32.971-80.093c-85.028,43.862-111.723,11.32-112.659-8.016
						c0,0,8.906,15.623,27.016,16.849c0,0-17.688-6.66-22.693-33.818c-5.005-27.159,19.042-40.237,19.042-40.237
						s-10.398,26.436,10.903,38.414c0,0-5.828-6.094-5.066-19.799c0,0,5.144,15.795,19.922,21.57c0,0-6.024-4.475-3.208-13.591
						c0,0,4.701,12,15.482,12.467c10.781,0.467,57.135-42.237,148.798-19.257s112.758,101.866,96.593,155.331
						c0,0-14.244,70.439-79.64,88.188C313.113,339.303,268.144,316.584,275.553,265.653"/>
				</g>
				<g>
					<g>
						<g>
							<path style="fill:#EAA98C;" d="M318.726,237.137c-4.513-20.481-23.453-32.874-43.665-26.593
								c-18.536,5.76-29.583,25.233-25.034,44.102c0.56,2.322,1.325,4.538,2.271,6.633c3.26,7.222,4.339,15.206,3.576,23.094
								c-0.307,3.169,0.078,6.474,1.27,9.712c3.683,10.006,14.476,16.605,24.771,13.831
								C303.364,302.137,326.072,270.474,318.726,237.137z"/>
						</g>
					</g>
					<path style="fill:#B28170;" d="M275.061,210.544c-6.685,2.077-12.388,5.945-16.745,10.917
						c24.645,5.509,48.393,33.998,58.366,49.15c3.484-10.252,4.625-21.757,2.043-33.474
						C314.213,216.657,295.273,204.263,275.061,210.544z"/>
					<g>
						<g>
							<g>
								<path style="fill:#1C1C26;" d="M259.416,298.584c1.872,1.731,3.693,3.301,5.688,4.598c1.979,1.293,4.04,2.434,6.261,3.144
									c2.215,0.711,4.547,1.017,6.847,0.861c0.577-0.016,1.143-0.14,1.715-0.201c0.566-0.106,1.123-0.247,1.686-0.375l1.7-0.531
									c0.563-0.191,1.113-0.423,1.671-0.631c2.208-0.903,4.33-2.034,6.359-3.323c2.023-1.302,3.932-2.786,5.758-4.366
									c1.824-1.586,3.511-3.327,5.133-5.124c1.593-1.825,3.094-3.731,4.482-5.719c5.508-7.975,9.352-17.134,10.929-26.682
									c0.777-4.77,1.061-9.628,0.661-14.439c-0.39-4.808-1.272-9.612-3.007-14.008c-1.718-4.419-4.288-8.503-7.601-11.867
									c-3.305-3.363-7.341-6.014-11.781-7.588c-8.896-3.187-19.13-1.877-27.368,2.801c-8.28,4.664-14.505,12.819-16.938,22.048
									c-1.244,4.605-1.506,9.469-0.794,14.188c0.231,1.171,0.407,2.352,0.678,3.517c0.29,1.16,0.584,2.321,0.914,3.478
									c0.626,2.266,1.548,4.753,1.587,7.34c-0.721-1.071-1.369-2.135-2.011-3.185c-0.66-1.006-1.326-2.162-1.84-3.325
									c-0.524-1.172-0.966-2.384-1.296-3.626c-0.327-1.243-0.516-2.52-0.778-3.78c-0.813-5.085-0.577-10.346,0.721-15.337
									c2.538-9.998,9.186-18.903,18.178-24.078c4.479-2.603,9.491-4.265,14.651-4.85c5.158-0.596,10.478-0.048,15.405,1.683
									c4.928,1.733,9.405,4.658,13.057,8.355c3.66,3.699,6.492,8.174,8.371,12.992c1.879,4.855,2.768,9.93,3.155,14.999
									c0.395,5.086,0.071,10.208-0.773,15.222c-1.715,10.035-5.772,19.612-11.644,27.885c-1.475,2.066-3.068,4.045-4.759,5.941
									c-1.721,1.868-3.513,3.676-5.452,5.328c-1.943,1.645-3.977,3.192-6.142,4.554c-2.173,1.348-4.456,2.537-6.852,3.487
									c-0.606,0.221-1.203,0.463-1.817,0.664l-1.858,0.559c-0.646,0.144-1.296,0.298-1.95,0.412
									c-0.661,0.069-1.317,0.197-1.982,0.212c-2.654,0.153-5.32-0.231-7.819-1.064
									C265.558,307.147,261.218,303.376,259.416,298.584z"/>
							</g>
						</g>
					</g>
					<path style="fill:#B28170;" d="M276.758,269.886c19.944,4.837,37.795-17.15,25.778-35.512
						c-12.017-18.362-34.696-6.384-38.694,12.505C259.843,265.768,273.97,263.255,276.758,269.886z"/>
					<path style="fill:#8E665B;" d="M273.72,266.461c18.645-7.159,13.114-34.147-2.164-28.495
						c-15.277,5.652-4.346,24.624-2.257,25.88C271.389,265.102,273.72,266.461,273.72,266.461z"/>
					<g>
						<path style="fill:#1C1C26;" d="M272.625,283.95c0.932-2.637,2.082-5.099,2.864-7.562c0.383-1.222,0.695-2.446,0.681-3.586
							c0.012-1.148-0.35-2.155-1.015-3.073c-1.386-1.831-3.748-3.258-5.982-4.769l-1.712-1.14c-0.297-0.207-0.545-0.358-0.883-0.611
							c-0.34-0.246-0.655-0.52-0.943-0.811c-1.156-1.173-1.908-2.575-2.433-3.983c-1.04-2.839-1.276-5.771-1.162-8.635
							c0.129-2.87,0.679-5.697,1.587-8.408c1.799-5.389,5.134-10.499,10.103-13.708c2.46-1.603,5.293-2.636,8.181-3.064
							c2.899-0.419,5.806-0.307,8.667,0.252c2.85,0.592,5.644,1.707,8.063,3.4c2.421,1.685,4.473,3.88,5.987,6.365
							c3.034,4.99,4.203,10.837,3.823,16.453c-0.204,2.814-0.808,5.592-1.864,8.182c-1.066,2.577-2.567,4.985-4.539,6.887
							c3.25-4.43,4.457-9.887,4.365-15.122c-0.115-5.253-1.62-10.463-4.468-14.677c-2.802-4.222-7.025-7.413-12.009-8.489
							c-4.972-1.108-10.381-0.441-14.595,2.319c-4.263,2.718-7.247,7.256-8.861,12.153c-0.811,2.457-1.302,5.03-1.445,7.602
							c-0.126,2.562,0.096,5.172,0.927,7.467c0.411,1.142,0.997,2.185,1.751,2.965c0.186,0.197,0.383,0.376,0.591,0.534
							c0.202,0.162,0.528,0.38,0.785,0.568l1.665,1.161c1.119,0.777,2.258,1.559,3.383,2.431c1.112,0.887,2.24,1.87,3.147,3.183
							c0.909,1.303,1.437,3.015,1.351,4.598c-0.038,1.594-0.5,3.033-1.079,4.348C276.357,279.802,274.653,282.023,272.625,283.95z"
							/>
					</g>
					<g>
						<path style="fill:#1C1C26;" d="M284.831,254.194c0.525-3.068,0.659-6.216-0.236-9.021c-0.857-2.81-2.958-5.01-5.554-6.012
							c-2.594-1.018-5.6-0.913-8.103,0.157c-2.515,1.071-4.448,3.145-5.185,5.714l-2.946-0.879c0.494-1.708,1.432-3.311,2.672-4.6
							c1.233-1.302,2.782-2.251,4.411-2.868c3.267-1.249,6.959-1.092,10.066,0.389c1.55,0.737,2.95,1.815,4.003,3.165
							c1.046,1.357,1.729,2.948,2.056,4.566C286.647,248.073,285.979,251.31,284.831,254.194z"/>
					</g>
				</g>
				<g>
					<path style="fill:#FFFFFF;" d="M155.806,252.242c28.872-0.824,33.245-32.526,33.245-32.526s-13.1-25.617-34.887-24.996
						c0,0-8.615,6.028-7.959,29.011C146.861,246.714,155.806,252.242,155.806,252.242z"/>
					<path style="fill:#E3EDFC;" d="M154.165,194.72c0,0-4.501,3.156-6.749,13.586c7.891,6.266,30.604-0.498,41.555,11.901
						c0.053-0.308,0.08-0.491,0.08-0.491S175.951,194.098,154.165,194.72z"/>
					
						<ellipse transform="matrix(0.9996 -0.0285 0.0285 0.9996 -6.3104 4.5148)" style="fill:#1C1C26;" cx="155.117" cy="223.477" rx="11.795" ry="28.702"/>
					<path style="fill:#FFFFFF;" d="M169.848,214.367c0.099,3.451-1.678,6.301-3.969,6.367c-2.291,0.065-4.227-2.679-4.326-6.13
						c-0.098-3.451,1.678-6.301,3.969-6.366C167.813,208.172,169.75,210.917,169.848,214.367z"/>
					<path style="fill:#1C1C26;" d="M186.882,214.344c-0.94-1.691-2.003-3.313-3.127-4.903c-2.278-3.156-4.948-6.075-7.997-8.622
						c-0.786-0.605-1.516-1.296-2.359-1.833l-2.501-1.669c-0.856-0.524-1.765-0.961-2.652-1.446
						c-0.448-0.233-0.891-0.482-1.347-0.701l-1.41-0.567c-4.213-1.922-9.394-2.749-13.456-3.262l-6.93,8.372l8.294-1.964
						c3.494,0.119,7.065,0.352,10.446,1.478l1.291,0.351c0.42,0.147,0.829,0.324,1.246,0.485c0.825,0.34,1.679,0.631,2.493,1.011
						l2.405,1.241c0.818,0.394,1.542,0.951,2.323,1.42c3.057,1.98,5.908,4.373,8.448,7.102c1.257,1.375,2.473,2.801,3.583,4.315
						c1.126,1.509,2.155,3.064,3.419,4.564C188.69,217.779,187.849,216.01,186.882,214.344z"/>
					<g>
						<path style="fill:#1C1C26;" d="M150.566,194.256c0.559-0.921,1.294-1.703,2.113-2.342c0.825-0.636,1.739-1.09,2.663-1.478
							c1.87-0.714,3.825-0.996,5.747-1.048c3.857-0.072,7.618,0.809,11.106,2.224c3.488,1.433,6.712,3.448,9.512,5.923
							c1.403,1.234,2.678,2.601,3.858,4.035c1.169,1.445,2.173,3.009,3.1,4.601c-1.08-1.497-2.271-2.898-3.516-4.236
							c-1.27-1.318-2.635-2.529-4.056-3.659c-2.874-2.222-6.066-4.005-9.444-5.245c-3.383-1.202-6.972-1.873-10.491-1.715
							c-1.753,0.093-3.479,0.43-5.049,1.043c-0.766,0.338-1.507,0.722-2.136,1.224c-0.622,0.505-1.151,1.093-1.544,1.754
							L150.566,194.256z"/>
					</g>
				</g>
				<g>
					<g>
						<path style="fill:#7C49AD;" d="M217.792,87.551c69.747-44.893,252.448-2.033,179.249,160.007L217.792,87.551z"/>
						<path style="fill:#9F58D6;" d="M386.172,153.197c-9.75,17.872-31.704-3.117-63.46-20.44s-55.915-36.198-51.878-44.99
							c5.565-12.12,43.736-15.62,75.492,1.704C378.082,106.794,395.921,135.325,386.172,153.197z"/>
						<path style="fill:#623893;" d="M397.041,247.558c10.195-22.568,15.42-42.821,16.684-60.851
							c-20.434,18.842-83.096-8.801-170.424-110.42c-9.476,2.748-18.127,6.513-25.509,11.264L397.041,247.558z"/>
						<path style="fill:none;stroke:#1C1C26;stroke-width:2.5;stroke-miterlimit:10;" d="M217.792,87.551
							c69.747-44.893,252.448-2.033,179.249,160.007L217.792,87.551z"/>
					</g>
					<g>
						<g>
							<path style="fill:#9F58D6;" d="M364.27,300.566L166.966,108.15c-2.984-2.91-2.315-7.874,1.333-9.891l48.906-27.03
								c2.336-1.291,5.236-0.947,7.205,0.856l179.715,164.591c2.142,1.961,2.64,5.144,1.2,7.666l-31.316,54.854
								C371.992,302.73,367.182,303.406,364.27,300.566z"/>
							<path style="fill:#B364FF;" d="M208.208,81.991l8.641-4.572c1.986-1.051,4.418-0.732,6.066,0.794l173.4,160.594
								c1.739,1.61,2.194,4.181,1.113,6.29l-4.127,8.059c-1.595,3.114-5.72,3.849-8.292,1.477L207.096,90.552
								C204.414,88.079,204.983,83.697,208.208,81.991z"/>
							<path style="fill:#7C49AD;" d="M209.252,116.638c-14.119-14.23-21.47-22.454-24.289-27.588l-16.664,9.21
								c-3.648,2.016-4.317,6.98-1.333,9.891L364.27,300.566c2.912,2.84,7.721,2.164,9.738-1.368l16.413-28.75l0,0
								C372.537,290.344,248.462,156.158,209.252,116.638z"/>
							<path style="fill:none;stroke:#1C1C26;stroke-width:2.5;stroke-miterlimit:10;" d="M364.27,300.566L166.966,108.15
								c-2.984-2.91-2.315-7.874,1.333-9.891l48.906-27.03c2.336-1.291,5.236-0.947,7.205,0.856l179.715,164.591
								c2.142,1.961,2.64,5.144,1.2,7.666l-31.316,54.854C371.992,302.73,367.182,303.406,364.27,300.566z"/>
						</g>
						<path style="fill:none;stroke:#1C1C26;stroke-width:2.5;stroke-miterlimit:10;" d="M176.799,117.74
							c-5.714-12.196-2.817-16.882,58.77-35.434"/>
						<path style="fill:none;stroke:#1C1C26;stroke-width:2.5;stroke-miterlimit:10;" d="M203.906,144.175
							c-2.007-13.278-1.541-15.828,53.811-41.585"/>
						<path style="fill:none;stroke:#1C1C26;stroke-width:2.5;stroke-miterlimit:10;" d="M234.83,174.333
							c-6.538-16.911,2.404-18.075,54.756-42.556"/>
						<path style="fill:none;stroke:#1C1C26;stroke-width:2.5;stroke-miterlimit:10;" d="M264.732,203.494
							c-0.229-4.794,51.467-47.343,51.467-47.343"/>
						<path style="fill:none;stroke:#1C1C26;stroke-width:2.5;stroke-miterlimit:10;" d="M293.352,231.405
							c15.36,0.413,17.871,7.715,49.079-51.229"/>
						<path style="fill:none;stroke:#1C1C26;stroke-width:2.5;stroke-miterlimit:10;" d="M328.281,265.455
							c22.97,0.313,22.636-5.418,39.039-62.718"/>
						<path style="fill:none;stroke:#1C1C26;stroke-width:2.5;stroke-miterlimit:10;" d="M354.844,291.427
							c12.117,2.592,16.265,10.132,36.798-66.347"/>
					</g>
				</g>
				<g>
					<path style="fill:#624A49;" d="M183.297,185.338c-17.256-21.152-60.301-16.468-64.355-9.27
						c-4.054,7.198,4.203,18.386,7.106,18.303C128.949,194.289,183.297,185.338,183.297,185.338z"/>
					<path style="fill:#3A312F;" d="M118.516,176.961c-2.963,7.192,4.746,17.49,7.531,17.41c2.902-0.083,57.25-9.033,57.25-9.033
						c-0.014-0.017-0.028-0.033-0.042-0.049c-11.247-5.283-28.314-6.356-28.314-6.356l5.12,3.451
						c-8.451-3.697-26.086-1.477-26.086-1.477l4.363,3.14C138.339,184.047,123.946,183.291,118.516,176.961z"/>
					<path style="fill:none;stroke:#1C1C26;stroke-width:2.5;stroke-miterlimit:10;" d="M183.297,185.338
						c-17.256-21.152-60.301-16.468-64.355-9.27c-4.054,7.198,4.203,18.386,7.106,18.303
						C128.949,194.289,183.297,185.338,183.297,185.338z"/>
				</g>
				<g>
					<path style="fill:#1C1C26;" d="M110.226,76.85c-2.975,3.228-5.732,6.651-7.909,10.404c-2.163,3.745-3.763,7.818-4.302,12.034
						c-0.527,4.195-0.044,8.543,1.796,12.361c1.781,3.822,4.529,7.235,7.97,9.831c3.416,2.626,7.358,4.589,11.497,5.957
						c4.147,1.361,8.491,2.152,12.874,2.489c4.385,0.321,8.825,0.256,13.228-0.28c4.402-0.544,8.771-1.436,13.102-2.595
						c-8.302,3.317-17.347,5.194-26.442,4.797c-4.539-0.186-9.078-0.908-13.448-2.28c-4.365-1.363-8.578-3.362-12.305-6.13
						c-3.734-2.739-6.882-6.406-8.893-10.679c-2.068-4.263-2.638-9.168-2.062-13.81c0.575-4.671,2.316-9.094,4.67-13.043
						c2.352-3.966,5.26-7.529,8.428-10.796L110.226,76.85z"/>
				</g>
				<g>
					<path style="fill:#624A49;" d="M113.443,296.528c-0.348-1.574,0.401-3.275,1.762-3.64c42.63-11.408,52.898-2.441,55.22,6.873
						c2.321,9.311-7.601,4.367-50.453,14.655c-1.363,0.327-2.717-0.66-3.065-2.235L113.443,296.528z"/>
					<path style="fill:#3A312F;" d="M113.502,296.793l3.405,15.388c0.349,1.575,1.703,2.562,3.065,2.235
						c42.852-10.288,52.774-5.345,50.453-14.655c-0.609-2.444-1.776-4.86-3.92-6.895l-0.362,7.201l-4.987-8.51l-0.777,6.702
						l-1.407-5.188l0.237,8.319l-4.342-6.266l-1.857,6.152l-3.138-6.881l-0.728,7.088l-2.324-3.419l-0.263,4.364l-4.966-7.797
						c0,0-0.404,9.596-0.694,9.604c-0.29,0.008-2.217-3.035-2.23-3.519c-0.014-0.484-0.849,4.187-0.849,4.187l-4.449-10.039
						l0.317,11.125l-3.883-7.15l-0.122,5.909l-5.577-7.196l-2.032,8.575l-1.241-2.772l-0.567,3.889l-5.823-10.677L113.502,296.793z"
						/>
					<path style="fill:none;stroke:#1C1C26;stroke-width:2.5;stroke-miterlimit:10;" d="M113.443,296.528
						c-0.348-1.574,0.401-3.275,1.762-3.64c42.63-11.408,52.898-2.441,55.22,6.873c2.321,9.311-7.601,4.367-50.453,14.655
						c-1.363,0.327-2.717-0.66-3.065-2.235L113.443,296.528z"/>
				</g>
			</g>
		</g>
		<g>
			<g>
				<path style="fill:#BFCDE2;" d="M164.9,500l23.538-61.788l158.248-35.66c4.469,6.331,8.908,13.135,13.22,20.432
					c16.222,27.448,26.065,54.089,32.177,77.017C316.355,500,240.628,500,164.9,500z"/>
				<path style="fill:#A0ABBC;" d="M185.611,500c3.25-0.972,6.737-2.172,10.509-3.642c18.411-7.174,40.833-19.567,63.137-34.897
					c22.303-15.33,41.907-31.822,55.202-46.441c2.038-2.241,3.887-4.391,5.56-6.458l-16.835,3.794
					c-12.61,13.022-29.998,27.355-49.611,40.836c-21.686,14.905-43.383,26.915-61.096,33.817
					c-13.706,5.34-21.185,6.072-24.791,5.679L164.9,500C171.804,500,178.707,500,185.611,500z"/>
				<path style="fill:#E3EEFF;" d="M314.63,468.403c22.953-21.29,20.049-60.194,20.049-60.194h4.71c0,0,2.258,46.645-20.194,61.936
					L314.63,468.403z"/>
				<path style="fill:#E3EEFF;" d="M298.364,466.843c25.175-18.609,26.611-57.594,26.611-57.594l4.681,0.523
					c0,0-2.937,46.607-26.948,59.309L298.364,466.843z"/>
				
					<path style="fill:none;stroke:#1C1C26;stroke-width:2.5398;stroke-linecap:round;stroke-linejoin:round;stroke-miterlimit:10;" d="
					M164.9,500l23.538-61.788l158.248-35.66c4.469,6.331,8.908,13.135,13.22,20.432c16.222,27.448,26.065,54.089,32.177,77.017"/>
			</g>
			<g>
				<path style="fill:#A0ABBC;" d="M195.974,412.959c7.803,21.637,126.254-11.137,136.577-30.75l18.515,27.578
					c1.698,2.529,1.041,5.954-1.483,7.662c-10.229,6.922-38.141,23.109-84.245,30.308c-41.324,6.453-63.158,2.075-72.641-1.202
					c-3.427-1.184-5.296-4.869-4.259-8.343L195.974,412.959z"/>
				<path style="fill:#7C899B;" d="M314.459,415.019c12.26-13.481,17.894-23.784,17.058-31.258
					c-2.336,2.997-6.905,6.243-13.021,9.521c-2.14,3.705-5.685,8.635-11.461,14.986c-11.46,12.602-27.903,26.718-46.797,40.241
					c1.67-0.234,3.361-0.48,5.1-0.751c5.891-0.92,11.48-1.988,16.779-3.163C294.848,434.499,305.95,424.375,314.459,415.019z"/>
				
					<path style="fill:none;stroke:#1C1C26;stroke-width:2.5398;stroke-linecap:round;stroke-linejoin:round;stroke-miterlimit:10;" d="
					M195.974,412.959c7.803,21.637,126.254-11.137,136.577-30.75l18.515,27.578c1.698,2.529,1.041,5.954-1.483,7.662
					c-10.229,6.922-38.141,23.109-84.245,30.308c-41.324,6.453-63.158,2.075-72.641-1.202c-3.427-1.184-5.296-4.869-4.259-8.343
					L195.974,412.959z"/>
				
					<path style="fill:none;stroke:#1C1C26;stroke-width:2.5398;stroke-linecap:round;stroke-linejoin:round;stroke-miterlimit:10;" d="
					M189.755,433.796c0,0,15.957,14.993,74.751,4.606c60.615-10.709,83.29-33.487,83.29-33.487"/>
			</g>
			<path style="fill:#A0ABBC;" d="M348.809,500c-30.194-74.694-88.401-53.017-116.129,0.145L348.809,500z"/>
			
				<path style="fill:none;stroke:#1C1C26;stroke-width:2.5398;stroke-linecap:round;stroke-linejoin:round;stroke-miterlimit:10;" d="
				M348.809,500c-30.194-74.694-88.401-53.017-116.129,0.145"/>
		</g>
		<g>
			<g>
				<path style="fill:#F9A723;" d="M173.993,492.807c-6.083,0.001-10.331-1.814-12.823-5.441l8.27-5.684
					c0.688,1,7.379,3.124,27.558-4.738c17.713-6.902,39.411-18.912,61.096-33.817c21.686-14.905,40.672-30.858,53.462-44.923
					c14.571-16.022,14.984-23.03,14.297-24.03l8.27-5.684c5.22,7.593,0.267,19.522-15.142,36.465
					c-13.295,14.619-32.9,31.111-55.202,46.441c-22.303,15.33-44.726,27.724-63.137,34.897
					C189.493,490.637,180.645,492.807,173.993,492.807z"/>
			</g>
			<path style="fill:#EF7F1B;" d="M173.993,492.807c6.652,0,15.5-2.17,26.647-6.514c18.411-7.174,40.833-19.567,63.137-34.897
				c22.303-15.33,41.907-31.822,55.202-46.441c15.409-16.943,20.362-28.872,15.142-36.465l-0.894,0.614
				c-0.122,5.814-4.532,14.995-15.967,29.234c-20.516,25.548-72.871,62.516-106.161,77.625
				c-24.803,11.257-40.46,14.525-49.046,10.795l-0.884,0.607C163.662,490.992,167.91,492.808,173.993,492.807z"/>
			<g>
				
					<path style="fill:none;stroke:#1C1C26;stroke-width:2.5398;stroke-linecap:round;stroke-linejoin:round;stroke-miterlimit:10;" d="
					M334.121,368.489c5.22,7.593,0.267,19.522-15.142,36.465c-13.295,14.619-32.9,31.111-55.202,46.441
					c-22.303,15.33-44.726,27.724-63.137,34.897c-11.147,4.344-19.995,6.514-26.647,6.514c-6.083,0.001-10.331-1.814-12.823-5.441"
					/>
				
					<path style="fill:none;stroke:#1C1C26;stroke-width:2.5398;stroke-linecap:round;stroke-linejoin:round;stroke-miterlimit:10;" d="
					M169.439,481.682c0.688,1,7.379,3.124,27.558-4.738c17.713-6.902,39.411-18.912,61.096-33.817
					c21.686-14.905,40.672-30.858,53.462-44.923c14.571-16.022,14.984-23.03,14.297-24.03"/>
			</g>
		</g>
	</g>
</g>
</svg>
